<?xml version="1.0" encoding="UTF-8"?>
<svg version="1.1" viewBox="0 0 1600 1600" width="1280" height="1280" xmlns="http://www.w3.org/2000/svg">
<path transform="translate(945,349)" d="m0 0c1.36 0.485 1.36 0.485 2.76 0.979 10.6 3.83 21 8.15 31.3 12.9 4.41 2.03 8.81 3.88 13.4 5.52 15 5.62 28.7 13.9 41.6 23.3 2.61 1.86 5.26 3.65 7.91 5.44 11.9 8.04 23.4 16.5 34.2 25.8 3.89 3.35 7.91 6.51 12 9.64 8.17 6.32 15.3 13.4 21.8 21.4 1.66 1.67 3.33 3.34 5 5 6.66 7.08 12.9 14.4 19 22 0.708 0.883 0.708 0.883 1.43 1.78 2.58 3.21 5.15 6.43 7.72 9.66 1.66 2.09 3.34 4.15 5.04 6.21 9.33 11.3 16.6 23.5 23.3 36.5 2.4 4.67 4.93 9.25 7.5 13.8 23 41.2 38.9 84.3 46 131 0.147 0.933 0.294 1.87 0.446 2.83 6.21 40.4 6.67 86.3-2.57 126-2.41 11.7-0.442 22.6 2.5 34 6.81 27.2 7.82 53.8 7.88 81.8 0.00518 1.13 0.0104 2.25 0.0157 3.41 0.0716 19.8-0.633 39.4-4.83 58.8-0.258 1.21-0.517 2.42-0.783 3.66-6.2 27.9-16.2 54.7-29.1 80.2-1.2 2.37-2.36 4.75-3.47 7.16-4.92 10.4-11.1 19.9-17.5 29.4-2.95 4.45-5.74 8.95-8.43 13.6-6.09 10.4-12.9 19.9-21.1 28.7-2.52 2.8-4.71 5.77-6.85 8.87-0.393 0.461-0.786 0.923-1.19 1.4h-2c-0.261 0.599-0.523 1.2-0.792 1.81-1.29 2.34-2.48 3.48-4.54 5.15-6.14 5.19-11.7 11-17.4 16.7-1.13 1.13-2.25 2.26-3.38 3.39-2.07 2.08-4.13 4.15-6.2 6.23-0.903 0.908-1.81 1.82-2.74 2.75-1.32 1.33-1.32 1.33-2.68 2.69-15.5 15.4-33.7 27.2-52.9 37.4-5.2 2.77-10.2 5.78-15.2 8.86-19.6 11.9-40 21.5-61.2 30.1-0.836 0.343-1.67 0.685-2.53 1.04-31.2 12.8-64 21-97.5 25-0.711 0.0853-1.42 0.171-2.15 0.258-37.3 4.46-37.3 4.46-55.8 4.74-1.13 0.0205-2.26 0.0409-3.42 0.062-47 0.74-94.2-3.18-140-16.1-0.996-0.28-0.996-0.28-2.01-0.566-19.2-5.43-37.6-12.1-55.9-20.1-2.7-1.17-5.41-2.32-8.12-3.46-16.5-7.01-32.1-15.9-47.2-25.6-4.84-3.12-9.76-5.99-14.8-8.73-9.22-5.04-17.6-11.2-25.9-17.6-0.866-0.659-0.866-0.659-1.75-1.33-5.39-4.15-10.1-8.4-14.5-13.7-1.73-1.95-3.51-3.59-5.5-5.26-4.26-3.67-8.17-7.61-12.1-11.6-4.51-4.58-9.01-8.96-14.1-12.9-13.9-11-24.5-26.5-34.1-41.2-1.09-1.65-2.18-3.31-3.27-4.96-1.62-2.46-3.24-4.93-4.86-7.39-0.825-1.26-1.65-2.51-2.48-3.77-51.3-77.9-71.3-171-53-263 1.42-6.57 3.4-12.9 5.68-19.2 1.68-6.4 1.15-12.5 0.0517-18.9-3.88-23.1-5.59-46-5.43-69.4 0.0239-3.87 0.0205-7.74 0.0139-11.6 0.0155-14 0.511-27.8 2.32-41.7 0.146-1.17 0.292-2.35 0.442-3.55 5.4-41 17.2-86.7 39.3-122 1.48-2.41 2.73-4.88 3.93-7.44 3.36-6.86 7.17-13.4 11-20 2.58-4.46 5.09-8.93 7.45-13.5 8.61-15.9 21.5-29.8 33.4-43.3 1.99-2.29 3.88-4.64 5.77-7.01 7.12-8.75 14.8-17 22.9-24.9 1.82-1.86 3.48-3.79 5.14-5.79 3.58-4.12 7.51-7.28 11.9-10.5 5.3-3.95 10.5-7.96 15.4-12.3 6.43-5.56 13.3-10.3 20.4-15 2.66-1.79 5.3-3.62 7.94-5.45 2.66-1.84 5.34-3.67 8.01-5.5 1.41-0.968 2.82-1.94 4.23-2.92 15.8-10.9 31.9-19.6 49.8-26.5 4.29-1.66 8.49-3.48 12.7-5.35 29.5-13.1 61.7-21 93.4-26.6 0.814-0.148 1.63-0.296 2.47-0.448 71.4-12.7 148-4.85 217 19.4zm-206 13.9c-0.989 0.123-1.98 0.246-3 0.372-19.2 2.41-37.7 6.07-56.3 11.8-0.77 0.237-1.54 0.475-2.33 0.719-24.6 7.63-47.5 17.9-70.2 30.2-0.751 0.409-1.5 0.818-2.28 1.24-3.96 2.17-7.86 4.43-11.7 6.76-0.629 0.375-1.26 0.751-1.91 1.14-8.42 5.05-16.4 10.4-24.1 16.5-2.74 2.15-5.53 4.17-8.38 6.17-10.7 7.69-20.3 16.8-29.9 25.7-2.47 2.27-4.99 4.48-7.53 6.68-3.48 3.07-6.52 6.34-9.51 9.88-1.65 1.89-3.37 3.63-5.18 5.37-3.9 3.84-7.45 8.01-10.5 12.6v2l-4 2v2h-2c-15.5 16.4-27.5 36.7-38.7 56.1-0.606 1.04-1.21 2.08-1.83 3.15-8.35 14.5-14.9 28.9-20.1 44.8-1.07 3.23-2.15 6.46-3.23 9.69-0.392 1.18-0.392 1.18-0.792 2.39-1.47 4.41-3.04 8.76-4.73 13.1-3.37 8.65-5.74 17.3-7.75 26.4-0.168 0.744-0.337 1.49-0.51 2.25-15.5 68.8-9.93 141 17.3 206 0.983 2.41 1.9 4.79 2.77 7.24 8.79 24.8 23.7 47.6 38.6 69.1 0.434 0.639 0.868 1.28 1.32 1.94 5.19 7.64 10.8 14.5 17.1 21.3 4.5 4.86 8.53 10.1 12.6 15.4 4.53 5.85 9.43 10.6 15 15.4 2.35 2.29 4.64 4.63 6.91 6.99 5.68 5.82 11.7 11 18.1 16 0.813 0.669 1.63 1.34 2.46 2.03 5.03 4.11 10.2 7.89 15.6 11.5 3.71 2.53 7.28 5.18 10.8 7.93 6.73 5.07 13.8 9.31 21.1 13.5 1.32 0.759 1.32 0.759 2.66 1.53 11.9 6.87 23.9 13.6 36.3 19.5 0.786 0.372 1.57 0.743 2.38 1.13 51.3 24 110 34.1 166 34.1 0.781-6.04e-4 1.56-0.00121 2.37-0.00183 23-0.048 45.5-2.31 68.2-6.19 0.749-0.127 1.5-0.253 2.27-0.383 34.1-5.78 65.4-14.7 96.7-29.6 0.744-0.351 1.49-0.703 2.25-1.06 4.64-2.21 9.2-4.54 13.7-6.94 0.836-0.439 1.67-0.878 2.53-1.33 14.9-7.85 29.3-16.2 42.7-26.3 1.98-1.49 4.01-2.87 6.09-4.21 16.5-10.9 31.5-23.7 45.3-37.8 2.35-2.29 2.35-2.29 5.35-4.29v-2c0.99-0.33 1.98-0.66 3-1 1.62-1.52 1.62-1.52 3.19-3.44 0.607-0.714 1.21-1.43 1.84-2.16 2.77-3.37 5.48-6.77 8.18-10.2 1.8-2.2 1.8-2.2 3.53-3.87 1.5-1.27 1.5-1.27 1.27-3.33l1.76-0.723c18.6-10.6 33.5-43.2 44-61.5 1.75-3.02 3.59-5.97 5.46-8.92 8.83-14.8 13.3-32.6 18.8-48.9 0.38-1.12 0.76-2.24 1.15-3.39 13-38.6 16.4-76.2 15.8-117-0.0189-1.51-0.0189-1.51-0.0381-3.06-0.646-37.4-9.3-72.6-21.5-108-1.35-3.9-2.67-7.81-3.97-11.7-7.36-22-7.36-22-18.9-42.1-2.15-3.21-3.95-6.58-5.8-9.97-11.8-21.4-27.4-41.2-43.8-59.2-2.11-2.39-4.09-4.87-6.08-7.37-4.82-5.92-10.1-11.3-15.5-16.7-0.894-0.893-1.79-1.79-2.71-2.71-14.6-14.5-30.8-26.9-47.7-38.5-0.975-0.669-0.975-0.669-1.97-1.35-16.9-11.5-34.6-21.4-52.7-30.9-2.03-1.06-4.06-2.13-6.08-3.21-31.9-16.9-68.7-26-104-30.5-1.07-0.14-2.14-0.281-3.25-0.425-12.8-1.66-25.6-2.88-38.5-3.76-1.82-0.126-1.82-0.126-3.68-0.254-26.8-1.7-53.3 0.965-79.8 4.32zm-349 503c-6.52 33.7-7.03 70.3 0 104 0.406 2.15 0.811 4.3 1.21 6.46 6.9 35.1 20.7 67.7 37.9 99 1.89 3.45 3.5 7.01 5.14 10.6 3.92 7.92 9.45 14.3 15.1 21 2.39 2.86 4.66 5.82 6.91 8.79 6.65 8.69 13.4 17.1 20.9 25.1 2.11 2.26 4.14 4.58 6.16 6.92 3.67 4.2 7.52 8.19 11.5 12.1l2.13 2.13c4.36 4.3 8.79 8.33 13.7 12 2.72 2.08 5.29 4.29 7.89 6.52 7.15 5.98 14.7 11.4 22.3 16.8 2.03 1.44 4.05 2.9 6.07 4.36 6.09 4.41 12.2 8.65 18.6 12.6 2.25 1.42 4.43 2.92 6.61 4.45 10.5 7.01 21.9 12.4 33.7 16.9 6.1 2.36 12.1 4.91 18.1 7.55 24.6 10.8 49.9 18.7 76.1 24.7 0.872 0.203 1.74 0.406 2.64 0.616 76.2 17.6 161 12.3 287-32.7 2.03-0.877 4.06-1.74 6.1-2.6 14.8-6.31 28.4-13.9 41.7-23 1.31-0.884 2.63-1.77 3.94-2.65 9.9-6.67 19.7-13.5 29.2-20.7 0.866-0.646 1.73-1.29 2.62-1.96 6.67-5.09 13-10.6 19.4-16 0.78-0.665 1.56-1.33 2.36-2.02 6.42-5.53 12.2-11.4 17.7-17.9 2.91-3.24 6.05-6.23 9.19-9.24 1.95-1.7 1.95-1.7 1.72-3.88h2c1.62-1.92 3.13-3.85 4.62-5.88 0.908-1.21 1.82-2.41 2.73-3.62 0.45-0.599 0.9-1.2 1.36-1.82 1.72-2.27 3.5-4.48 5.28-6.69 4.76-5.93 9.41-11.9 14-18 0.63-0.821 1.26-1.64 1.91-2.49 4.84-6.57 8.32-13.7 11.9-21 1.37-2.79 2.79-5.55 4.21-8.31 13.3-26 23.6-52 31-80.2 0.269-1.02 0.539-2.03 0.816-3.08 7.95-30.4 10.1-61.6 7.37-92.9-0.07-0.876-0.14-1.75-0.212-2.65-0.0808-0.804-0.162-1.61-0.245-2.44-0.0681-0.699-0.136-1.4-0.206-2.12-0.651-2.31-1.73-3.31-3.52-4.86-0.957 3.23-1.14 6.16-1.16 9.52-0.0103 1.11-0.0205 2.22-0.0311 3.36-0.0073 1.2-0.0146 2.4-0.0221 3.64-0.0281 2.58-0.0568 5.15-0.0859 7.73-0.042 4.03-0.0777 8.07-0.104 12.1-0.15 20.8-1.35 40.9-6.22 61.2-0.385 1.61-0.385 1.61-0.778 3.25-6.09 24.8-14.7 47.2-25.7 70.1-1.79 3.73-3.51 7.49-5.22 11.3-7.89 17.2-17.5 31.6-30 45.7-2.8 3.19-5.4 6.51-7.99 9.88-5.93 7.71-12.2 14.8-19.1 21.6-4.11 4.09-7.82 8.5-11.6 12.9-9.59 11-21.3 19.5-33 28.1-1.95 1.44-3.9 2.9-5.85 4.35-8.53 6.35-17.2 12.4-26.2 18.1-0.625 0.406-1.25 0.811-1.89 1.23-19.9 12.9-40.3 23.6-62.7 31.2-3.7 1.27-7.36 2.64-11 4.03-41.1 15.5-83.7 23.7-127 27.5-1.15 0.108-1.15 0.108-2.32 0.218-4.56 0.422-9.1 0.659-13.7 0.782-0.972 0.0272-1.94 0.0545-2.95 0.0825-65 1.52-130-10.9-190-36.1-1.41-0.563-2.82-1.12-4.23-1.68-18.6-7.46-36.6-16.4-52.8-28.3-1.9-1.31-3.81-2.59-5.72-3.88-8.63-5.83-16.9-12.1-25.1-18.4-2.21-1.71-4.44-3.39-6.67-5.07-13.1-9.9-24.6-20.6-35.7-32.7-1.62-1.76-3.25-3.51-4.88-5.26-5.08-5.46-9.93-11-14.6-16.9-2.06-2.53-4.16-5-6.29-7.47-17-19.8-29.4-41.3-40.4-65-1.48-3.16-3-6.29-4.53-9.42-10.6-21.9-17.5-44.9-21.5-68.8-0.359-2.11-0.734-4.21-1.12-6.32-3.94-21.3-3.85-42.3-3.41-63.8 4.31 10.7 6.82 19.9 6.69 31.6 0.035 2.62 0.0781 5.25 0.129 7.87l0.0708 3.88c0.654 21.4 4.31 47.5 14.1 66.7 0.99 0.33 1.98 0.66 3 1 0.755-6.65 1.17-13.2 1.28-19.9 0.0184-0.901 0.0368-1.8 0.0558-2.73 0.0777-3.81 0.146-7.62 0.215-11.4 0.052-2.8 0.109-5.6 0.167-8.4 0.0136-0.851 0.0272-1.7 0.0411-2.58 0.0979-4.73 0.464-9.27 1.24-13.9 3.49 4.85 6.88 9.7 9.88 14.9 3.58 6.06 7.83 11.6 12.1 17.1 0.829 1.1 1.66 2.2 2.48 3.3 5.19 6.88 10.7 13.4 16.5 19.7 1.13 1.29 2.25 2.58 3.38 3.88 9.37 10.7 19 21.2 29.8 30.5 1.74 1.59 3.19 3.24 4.66 5.08 0.701 0.846 1.4 1.69 2.12 2.56h2c0.33 0.99 0.66 1.98 1 3 2.14 2.01 2.14 2.01 4.81 4.06 1.01 0.802 2.01 1.6 3.05 2.43 0.786 0.624 0.786 0.624 1.59 1.26 2.39 1.93 4.71 3.94 7.05 5.93 7.38 6.14 15.1 11.9 22.9 17.4 1.72 1.23 3.43 2.46 5.13 3.71 35.3 25.6 76.7 42.6 117 57.2 0.0088 1.7 0.0088 1.7 0.0178 3.44 0.0571 10.7 0.13 21.4 0.218 32 0.0448 5.49 0.084 11 0.111 16.5 0.0259 5.3 0.0663 10.6 0.117 15.9 0.0167 2.02 0.0282 4.05 0.0344 6.07 0.00957 2.83 0.0376 5.66 0.07 8.48-0.00215 1.27-0.00215 1.27-0.00435 2.56 0.00646 2.56 0.00646 2.56 0.437 6.02 3.37 2.65 3.37 2.65 10 2v-90c11.5 2.64 23.1 5.28 35 8 6.54 1.09 13 2.12 19.6 2.88 1.61 0.195 3.21 0.391 4.82 0.587 3.86 0.464 7.72 0.899 11.6 1.32 1.86 0.202 3.72 0.41 5.58 0.619 60.2 6.56 121-1.02 179-19.4 1.16-0.368 1.16-0.368 2.34-0.743 10.8-3.45 21.2-7.52 31.5-12.3 0.9-0.408 1.8-0.816 2.73-1.24 2.2-1.01 4.4-2.04 6.59-3.08 0.786-0.373 1.57-0.745 2.38-1.13 6.46-3.09 12.8-6.38 19.1-9.76 4.05-2.17 8.12-4.25 12.3-6.19 11-5.18 20.1-11.1 29.2-19.1 2.27-1.97 4.62-3.84 6.99-5.7 8.02-6.4 15.9-12.9 23.8-19.6 0.656-0.551 1.31-1.1 1.99-1.67 0.614-0.528 1.23-1.06 1.86-1.6 0.822-0.7 0.822-0.7 1.66-1.41 1.61-1.7 2.48-3.38 3.43-5.5-4.46 2.39-8.56 5.07-12.7 8-7.3 5.15-15 9.66-22.6 14.2-3.58 2.12-7.11 4.29-10.6 6.54-0.834 0.532-1.67 1.06-2.53 1.61-1.81 1.17-3.62 2.36-5.41 3.55-8.4 5.43-17 9.2-26.3 12.9-5.4 2.2-10.8 4.5-16.1 6.78-1.57 0.665-1.57 0.665-3.18 1.34-1.03 0.436-2.06 0.872-3.12 1.32-1.04 0.44-2.09 0.881-3.16 1.33-2.2 0.939-4.39 1.89-6.58 2.86-8.65 3.8-17.4 7-26.4 9.89-0.726 0.234-1.45 0.468-2.2 0.71-48.3 15.5-99.3 22.7-150 21.9-0.827-0.0126-1.65-0.0251-2.51-0.0381-54-1.08-110-12.8-159-34.8-3.56-1.58-7.14-3.1-10.7-4.63-2.65-1.13-5.29-2.27-7.94-3.4-3.08-1.32-6.16-2.63-9.25-3.92-13.6-5.73-26.1-12.7-37.9-21.5-3.48-2.56-7.05-4.98-10.6-7.4-13.2-8.88-26-18.1-37.6-29-2.7-2.47-5.51-4.75-8.37-7.03-3.74-3.01-6.88-6.03-9.87-9.77-1.47-1.81-1.47-1.81-4.26-3.98-3.03-2.53-5.42-5.16-7.96-8.15-2.05-2.36-4.17-4.63-6.31-6.9-5.21-5.54-10.1-11.2-14.7-17.3-3.16-4.1-6.45-8.06-9.83-12-7.14-8.38-12.8-17-18.1-26.7-2.39-4.38-4.84-8.71-7.4-13-11.9-19.9-23.1-40.5-31.4-62.2-0.706-1.8-1.51-3.57-2.34-5.32-0.99-0.33-1.98-0.66-3-1z"/>
<path transform="translate(798 449)" d="m0 0c13.6 5.15 27.6 21.3 36 32.7 0.719 0.971 0.719 0.971 1.45 1.96 3.92 5.3 7.76 10.6 11.5 16 0.645 0.913 0.645 0.913 1.3 1.84 14.1 20.1 29.7 51 29.7 76.2 1.64 0.203 1.64 0.203 3.31 0.41 32.1 4.32 68.8 15.7 91.7 39.6 1.18 1.14 1.18 1.14 2.38 2.31 0.866 0.887 1.73 1.77 2.62 2.69 0.692 0.708 1.38 1.42 2.1 2.14 5.44 5.77 9.7 11.6 12.9 18.9 0.255 0.579 0.509 1.16 0.772 1.76 2.75 7.1 2.61 13.9 2.52 21.5-0.00561 1.35-0.00987 2.71-0.0129 4.06-0.0114 3.54-0.0408 7.07-0.0741 10.6-0.0309 3.62-0.0444 7.24-0.0595 10.9-0.032 7.08-0.0831 14.2-0.146 21.2 0.667-0.137 1.33-0.274 2.02-0.416 1.33-0.27 1.33-0.27 2.68-0.545 0.873-0.178 1.75-0.357 2.65-0.541 4.21-0.791 8.38-1.24 12.7-1.5 1.05-0.0657 2.1-0.131 3.18-0.199 17.8-0.585 34.9 5.35 48.5 17 14 13.5 21.1 31 21.7 50.3 0.207 30.2-10.9 57.4-32 79-22 21.9-51.3 30.3-80.7 37.2-0.674 0.161-1.35 0.322-2.04 0.488-1.84 0.44-3.69 0.87-5.54 1.3-5.62 1.71-8.44 3.69-11.2 8.87-0.794 1.45-0.794 1.45-1.6 2.93-0.547 1.03-1.09 2.05-1.66 3.11-1.16 2.11-2.32 4.22-3.49 6.32-0.555 1-1.11 2.01-1.68 3.04-2.88 5.11-6.16 9.88-9.52 14.7-1.02 1.53-2.04 3.06-3.06 4.59-5.38 8.04-10.6 15.8-17.4 22.7-1.73 1.58-1.73 1.58-1.51 3.71 0.876 0.156 1.75 0.311 2.66 0.471 3.31 0.595 6.62 1.2 9.93 1.82 1.42 0.262 2.84 0.519 4.26 0.771 11.6 2.05 23.5 4.34 32.1 12.9 1.74 3.49 1.43 7.19 1 11-2.76 6.71-8.77 9.04-15 12-1.02 0.495-2.04 0.99-3.09 1.5-10.3 4.7-21 7.71-31.9 10.5-1.12 0.285-2.23 0.57-3.38 0.864-15.6 3.91-31.1 6.87-47.1 9.01-1.15 0.155-1.15 0.155-2.31 0.314-16.2 2.16-32.3 2.97-48.6 2.98-1.62 0.00323-3.25 0.0066-4.87 0.0101-3.38 0.00593-6.76 0.00785-10.1 0.00725-3.41-8.1e-5 -6.83 0.00683-10.2 0.0205-19.2 0.0758-38.3-0.0252-57.4-2.21-1.88-0.203-1.88-0.203-3.8-0.41-82.3-9.68-82.3-9.68-100-31.9-2.54-3.66-2.58-6.29-2.21-10.7 3.73-7.61 10-9.78 17.6-12.6 9.82-3.35 20.2-4.31 30.4-5.44-2.56-4.68-5.28-8.82-8.62-13-49.3-62.9-68.3-150-68.6-228-0.00408-0.965-0.00815-1.93-0.0124-2.92-0.0207-5.1-0.0351-10.2-0.0445-15.3-0.0111-5.23-0.0456-10.5-0.0852-15.7-0.0263-4.06-0.0345-8.12-0.0381-12.2-0.00483-1.93-0.0163-3.85-0.035-5.78-0.204-22.4 5.82-36.5 21.5-52.6 0.597-0.648 1.19-1.3 1.81-1.96 13.2-14 30.3-22.6 48.2-29 0.781-0.282 1.56-0.565 2.37-0.855 31.2-11.1 31.2-11.1 42.6-11.1 0.219-1.01 0.438-2.01 0.664-3.05 6.68-29.9 16.9-59.4 36.8-83.1 1.65-1.98 3.27-3.98 4.88-5.99 9.7-12 19-22.5 31.4-31.8 0.65-0.506 1.3-1.01 1.97-1.53 4.75-3.53 4.75-3.53 7.32-3.21zm-9.04 19.7c-10.2 9.55-18.6 19.2-26 31-0.57 0.869-1.14 1.74-1.73 2.63-8.33 13.1-13.8 27.3-17.3 42.4-0.185 0.761-0.371 1.52-0.562 2.31-6.15 27.2-0.0372 59.3 14.8 82.9 0.596 0.91 1.19 1.82 1.8 2.76 0.616 0.993 1.23 1.99 1.87 3.01 4.64 7.29 9.84 14 16.1 20h2v2c2.07 1.82 4.13 3.51 6.31 5.19 0.595 0.476 1.19 0.953 1.8 1.44 1.57 1.21 3.22 2.3 4.88 3.37 0.99-0.33 1.98-0.66 3-1-0.268-1.06-0.536-2.12-0.812-3.21-6.83-27.4-10.3-53.2-10.4-81.4-0.00408-1.02-0.00815-2.04-0.0124-3.1-0.0207-5.42-0.0351-10.8-0.0445-16.3-0.00882-4.42-0.0296-8.84-0.0615-13.3-0.192-27.2 0.237-53.1 6.36-79.8-0.66-0.33-1.32-0.66-2-1zm20 65c-0.0875 7.94-0.165 15.8 0.5 23.8 2.44 33.6 1.74 70.8-8.93 103-0.62 2.5-0.663 4.72-0.566 7.29 7.19-2.07 12.3-6.27 18-11 0.557-0.463 1.11-0.926 1.69-1.4 11.6-9.87 19.2-22.8 21.1-38.1 2.16-31.3-10.6-57.7-28.6-82.2-0.393-0.415-0.786-0.83-1.19-1.26h-2zm-104 71.1c-0.831 0.272-1.66 0.544-2.52 0.825-0.891 0.308-1.78 0.616-2.7 0.933-0.932 0.32-1.86 0.639-2.82 0.968-22.4 7.88-49.8 18.4-61.7 40.3-3.15 7.73-3.47 16.8-1.05 24.8 1.19 2.54 2.52 4.76 4.11 7.07 0.531 0.779 1.06 1.56 1.61 2.36 6.35 8.69 13.9 14.4 23.5 19.2 1.39 0.711 1.39 0.711 2.8 1.44 7.56 3.82 15.2 7.14 23.1 10 0.665 0.246 1.33 0.491 2.01 0.744 45.1 16.6 96.6 19.5 144 14.3 1.17-0.129 2.34-0.258 3.54-0.391 14-1.6 27.8-3.69 41.6-6.61 1.68-0.355 1.68-0.355 3.39-0.718 24.8-5.5 56.7-16.2 72.5-37.3 5.76-9.25 7.94-17.1 7-28-3.48-14.4-14.7-22.9-26.7-30.3-15.4-9.21-36.8-21.3-55.3-20.7-1.64 1.64-1.27 3.66-1.44 5.86-0.735 8.63-2.58 16.7-4.93 25.1-0.292 1.04-0.584 2.08-0.885 3.15-2.58 8.88-5.15 17.4-10.9 24.8-1.02 1.34-1.02 1.34-2.07 2.71-0.596 0.775-1.19 1.55-1.8 2.35-0.66 0.99-1.32 1.98-2 3 6.2-1.77 9.14-6.36 12.2-11.7 0.598-1.09 1.2-2.19 1.81-3.31 0.66-0.99 1.32-1.98 2-3 20.6 1.22 47.4 7.43 62 23-3.94 9.18-16.3 12.7-25 16.2-23.9 9.1-49.8 8-75 8.03-2.24 0.00297-4.49 0.00708-6.73 0.0115-7.07 0.0136-14.1 0.0233-21.2 0.0272-8.07 0.00447-16.1 0.022-24.2 0.051-6.3 0.0218-12.6 0.0317-18.9 0.033-3.73 0.00103-7.47 0.0066-11.2 0.0248-68.3 0.313-68.3 0.313-88.6-19.1-1.39-1.66-1.39-1.66-3.21-4.29 4.68-6.47 10.5-9.46 17.8-12.2 1.09-0.424 1.09-0.424 2.21-0.857 1.53-0.592 3.07-1.18 4.61-1.76 2.34-0.892 4.67-1.8 7-2.72 1.5-0.575 3-1.15 4.5-1.72 0.689-0.272 1.38-0.544 2.09-0.824 4.43-1.66 8.11-2.3 12.8-1.88 2.6 1.39 4.69 2.68 7 4.44 0.615 0.452 1.23 0.905 1.86 1.37 4.23 3.22 7.36 6.64 10.4 11 3.19 4.06 7.28 7.54 11.7 10.2 0.99-0.33 1.98-0.66 3-1-1.28-1.71-2.62-3.37-4-5h-2c-0.253-0.567-0.505-1.13-0.766-1.72-1.4-2.58-3.07-4.56-4.98-6.78-13.9-17.3-19.1-40.9-21.2-62.5-3.22-1.06-5.08-0.937-8.28 0.117zm256 102c-45.3 41.5-126 44.4-183 42.6-6.59-0.329-13.1-0.944-19.7-1.73-2.26-0.261-4.51-0.474-6.77-0.671-38.9-3.54-85.5-14.6-116-41.2-1.89-1.7-1.89-1.7-4.88-1.4-0.774 10.1-0.774 10.1 3 19 26.4 27.9 73.7 38.1 110 42 1.6 0.176 1.6 0.176 3.22 0.355 70.3 7.3 157 6.13 215-40.3 3.34-2.64 3.34-2.64 5.69-6.06 0.0718-2.72 0.093-5.41 0.0625-8.12-0.00677-1.13-0.00677-1.13-0.0137-2.29-0.0118-1.86-0.0297-3.73-0.0488-5.59-3.78 0-4.13 0.833-6.75 3.44zm35.8 53.6c-1.55 3.99-2.37 7.78-2.89 12-0.148 1.16-0.296 2.31-0.449 3.5-0.155 1.23-0.31 2.46-0.469 3.73-2.61 19.7-6.28 39-11.3 58.3-0.245 0.939-0.49 1.88-0.743 2.84l-0.665 2.5c-0.579 2.26-0.579 2.26-0.471 5.13 12.8-2.18 24.9-5.17 36.9-10.1 1.86-0.766 3.73-1.49 5.61-2.22 8.4-3.6 12.6-9.07 17.5-16.6 0.719-0.986 0.719-0.986 1.45-1.99 8.34-11.9 11.4-26.8 10.5-41-1.78-9.04-6.62-15.6-14-21-11.3-7.09-31-3.67-41 5zm-262 66c-0.519 0.485-1.04 0.97-1.57 1.47-7.34 6.89-13.2 13.9-18.4 22.5-0.508 0.739-1.02 1.48-1.54 2.24-10.1 15.3-17.2 37-15 55.4 0.184 0.772 0.369 1.54 0.559 2.34 14.3 5.18 37.4-4.37 50.5-10.2 5.88-2.78 10.7-6.36 15.5-10.8 0.636-0.557 1.27-1.11 1.93-1.69 11.8-10.9 20.5-25.1 28.7-38.8 5.33-8.83 11.5-16.2 19.4-22.8 1.27-1.08 2.52-2.19 3.73-3.34 9.44-8.89 21.6-14.8 33.2-20.3-9.6-10.5-24.6-13.3-38.2-13.9-32.2-0.995-56.6 16.9-78.8 37.9zm118-1.94c-0.705 0.321-1.41 0.642-2.14 0.972-21.3 9.92-32.4 27.6-44.4 47.1-3.89 6.25-8.15 12.1-12.7 17.9-0.571 0.737-1.14 1.47-1.73 2.23-4.65 5.69-10.2 9.63-16.3 13.8-1.07 0.768-2.14 1.54-3.25 2.33-21.2 15.2-44.3 18.6-69.8 20.7 1.72 11 10 19.5 18.6 26 6.11 4.1 12.3 6.95 19.4 9.02 1.79 0.534 1.79 0.534 3.62 1.08 19.2 4.67 41.2 0.212 58.4-9.08 0.971-0.525 1.94-1.05 2.94-1.59 28.4-16 53-45.8 62.3-77.4 4.75-17.1 7.74-38.4-0.215-55-1.07-1.28-1.07-1.28-3.58-1.25-4.12 0.306-7.4 1.62-11.1 3.32z"/>
<path transform="translate(792 379)" d="m0 0c60.7-1.71 128 13.2 181 43.8 3.83 2.22 7.72 4.34 11.6 6.42 0.626 0.335 1.25 0.67 1.9 1.01 3.65 1.94 7.35 3.74 11.1 5.49 14 6.92 27.7 17.1 39.1 27.7 3.49 3.19 7.06 6.23 10.8 9.19 4 3.23 7.69 6.59 11.2 10.3 1.85 1.82 3.74 3.51 5.7 5.2 13.6 11.8 26.7 24.7 36.4 39.9 0.804 1.17 1.61 2.33 2.43 3.49 11.9 16.9 23.9 34.2 33.6 52.5 0.317 0.598 0.634 1.2 0.96 1.81 7.53 14.3 13.7 29.2 19.3 44.4 0.476 1.26 0.476 1.26 0.961 2.55 17.8 48.8 22.6 106 14.1 157-0.384 2.33-0.761 4.65-1.14 6.98-6.04 37-6.04 37-12.2 54.2-0.475 1.37-0.475 1.37-0.959 2.76-7.4 21.2-16.6 41.2-28.7 60.2-1.29 2.02-2.54 4.06-3.78 6.11-5.88 9.68-12.4 18.9-19.1 28-1.29 1.76-2.56 3.52-3.82 5.3-5.86 8.21-12.3 15.4-19.5 22.5-2 2.03-3.85 4.11-5.69 6.29-3.19 3.73-6.72 6.91-10.4 10.1-3.1 2.72-5.96 5.62-8.77 8.63-1.31 1.19-1.31 1.19-3.31 1.19v2c-1.7 1.56-1.7 1.56-4.12 3.44-0.908 0.708-1.82 1.42-2.75 2.14l-3.12 2.42c-1.17 0.919-2.33 1.84-3.5 2.76-2.98 2.36-5.97 4.7-8.97 7.04-1.24 0.975-2.48 1.96-3.71 2.95-4.5 3.55-9.36 6.36-14.4 9.15-3.89 2.18-7.69 4.46-11.5 6.84-43.2 26.8-90.7 44.6-141 52.2-1.25 0.196-2.5 0.392-3.78 0.594-20.3 3.07-40.4 3.8-60.8 3.84-1.75 0.00926-1.75 0.00926-3.54 0.0187-16.8 0.0572-33.2-1.14-49.8-3.46-0.78-0.107-1.56-0.214-2.36-0.324-4.29-0.595-8.56-1.27-12.8-1.99-1.25-0.212-2.5-0.423-3.79-0.641-11.5-2.02-22.8-4.77-34-8.05-1.54-0.439-1.54-0.439-3.11-0.886-35-10.1-66.7-25.3-97.9-44.1-1.37-0.817-2.74-1.63-4.11-2.45-8.94-5.4-16.9-11.4-24.8-18.2-3.21-2.76-6.49-5.4-9.83-8-5.76-4.59-10.9-9.7-16.1-14.9-0.915-0.915-1.83-1.83-2.77-2.77-12.4-12.5-12.4-12.5-12.4-15.6l-2.17-0.699c-9.49-4.37-16.1-15.2-21.7-23.6-2.02-2.98-4.2-5.84-6.35-8.72-10.4-14.1-20.2-28.8-28.8-44l-1.17-2.05c-24.3-43-36.9-94.6-37.8-144-0.0284-1.29-0.0567-2.59-0.0859-3.92-0.0489-3.52-0.0175-7.04 0.0444-10.6 0.0296-1.79 0.0497-3.58 0.0635-5.38 0.393-42.1 9.79-83.5 25.8-122 0.987-2.4 1.96-4.8 2.92-7.2 8.34-20.4 20.6-38.7 33.3-56.6 1.1-1.57 2.2-3.13 3.3-4.7 1.99-2.83 3.98-5.64 5.98-8.46 2.16-3.04 4.28-6.1 6.39-9.18 2.9-4.22 5.82-8.43 8.89-12.5 0.476-0.637 0.951-1.27 1.44-1.93 2.42-2.66 5.08-4.91 7.8-7.25 3.73-3.31 7.2-6.89 10.7-10.4 4.76-4.85 9.58-9.54 14.7-14 2.18-1.88 4.28-3.82 6.39-5.77 5.14-4.64 10.5-8.89 16-13.1 2.78-2.15 5.48-4.37 8.18-6.62 10.6-8.47 22.2-15.2 34.4-21.2 6.43-3.12 12.7-6.5 18.9-9.97 49.6-27.2 109-41.1 165-42.9zm-44 24.1c-1.12 0.158-1.12 0.158-2.27 0.319-31.8 4.62-62.2 15.7-92.2 27.1-1.51 0.57-1.51 0.57-3.04 1.15-12.1 4.69-23.2 10.9-34.2 17.6-0.61 0.372-1.22 0.743-1.85 1.13-9.49 5.79-18.8 11.8-27.7 18.4-1.73 1.29-3.48 2.56-5.23 3.82-6.56 4.81-12.3 10.1-17.9 15.9-3.63 3.72-7.39 6.99-11.6 10.1-9.39 7.04-17.7 15.6-25.3 24.5-1.82 2.12-3.7 4.17-5.58 6.23-4.73 5.32-8.94 11-13.1 16.8-0.947 1.29-0.947 1.29-1.91 2.6-3.63 5.04-6.65 10.2-9.55 15.7-2.03 3.61-4.41 6.92-6.82 10.3-2.82 4.01-5.3 8.17-7.71 12.4-0.317 0.554-0.633 1.11-0.959 1.68-21.4 37.8-33.7 80.4-39 123-0.0862 0.681-0.172 1.36-0.261 2.06-0.628 5.23-0.924 10.4-0.977 15.7-0.00979 0.81-0.0196 1.62-0.0297 2.46-0.568 59.4 12.4 127 48.5 175 2.26 3.22 4.24 6.59 6.24 9.98 12.5 21.1 28.5 40.4 47.1 56.4 1.94 1.71 3.83 3.45 5.72 5.22 0.584 0.548 1.17 1.1 1.77 1.66 1.17 1.1 2.34 2.21 3.51 3.32 2.73 2.94 2.73 2.94 6.39 3.91v2c1.45 1.5 1.45 1.5 3.38 3.06 2.32 1.96 4.61 3.92 6.82 6.01 16 15.1 36.1 26.5 55.9 36 1.96 0.955 3.9 1.94 5.84 2.94 16.1 8.3 32.9 15.1 50.1 21 0.947 0.325 1.89 0.65 2.87 0.985 24.4 8.24 49.6 12.9 75.1 16 0.794 0.103 1.59 0.206 2.41 0.312 30.2 3.84 60.6 2.34 90.6-2.31 1.95-0.297 1.95-0.297 3.94-0.6 36.5-5.66 72.4-16.5 105-33.5 4.55-2.35 9.17-4.4 13.9-6.38 7.43-3.16 14-7.09 20.8-11.5 0.933-0.576 1.87-1.15 2.83-1.75 13.8-8.51 26.8-18.6 38.1-30.1 2.49-2.5 5.12-4.79 7.8-7.09 2.99-2.61 5.89-5.31 8.8-8.01 3.58-3.32 7.17-6.62 10.9-9.81 6.17-5.37 11.5-11.1 16.5-17.5 2.17-2.75 4.41-5.42 6.67-8.11 4.31-5.27 7.92-10.7 11.4-16.6 1.32-2.16 2.63-4.32 3.95-6.48 0.956-1.57 1.91-3.14 2.86-4.71 2.11-3.47 4.23-6.92 6.51-10.3 12.5-18.6 20.4-39.5 27.7-60.5 0.303-0.85 0.606-1.7 0.917-2.58 9.6-27.1 14.3-56.7 15.1-85.4 0.0219-0.731 0.0438-1.46 0.0664-2.22 0.817-32-3.64-63-12.1-93.8-0.197-0.726-0.393-1.45-0.596-2.2-3.68-13.3-9.11-26.1-14.4-38.8-0.344-0.834-0.689-1.67-1.04-2.53-7.22-17.3-16.1-33.9-26.8-49.3-1.8-2.65-3.41-5.31-4.96-8.11-5.74-9.79-13.8-18.5-21.3-26.9-1.58-1.79-3.13-3.6-4.67-5.42-13.5-17.2-13.5-17.2-31.2-28.7v-2c-1.38-1.47-1.38-1.47-3.25-3-0.736-0.624-1.47-1.25-2.23-1.89-0.831-0.696-1.66-1.39-2.52-2.11-0.883-0.758-1.77-1.52-2.68-2.3-17.7-15-37.1-28-57.2-39.5-1.49-0.872-2.96-1.77-4.42-2.69-6.05-3.79-12.1-6.46-18.8-8.84-2.13-0.776-4.26-1.55-6.38-2.33-1.08-0.39-2.16-0.78-3.27-1.18-4.1-1.5-8.18-3.05-12.3-4.61-30.2-11.5-59.8-19.7-92-23.6-0.818-0.1-1.64-0.2-2.48-0.304-7.77-0.87-15.6-1.09-23.4-1.32-1.1-0.0327-1.1-0.0327-2.22-0.066-19.9-0.569-39.2 0.857-58.9 3.69z"/>
<path transform="translate(550 569)" d="m0 0c4.53 2.68 6.79 6.44 8.44 11.4 0.778 6.25 0.321 11-3.37 16.2-4.25 4.58-9.64 7.53-15.9 8.01-5.54-0.37-9.26-1.99-13.5-5.56-4.86-5.8-5.8-10.4-5.6-17.8 0.643-5.2 3.16-7.77 6.91-11.2 6.25-4.33 16.2-4.17 23-1.06z"/>
<path transform="translate(1069 568)" d="m0 0c4.65 2.69 7.39 5.07 9.5 10.1 1.09 6.52 0.594 12.5-3 18.2-3.65 4.17-9.12 7.23-14.6 7.81-5.81 0.17-9.19-0.239-13.7-4.24-4.16-4.28-6.84-9.29-7.1-15.3 0.367-5.19 1.64-8.68 5.1-12.7 7.01-5.29 15.4-7.11 23.9-3.81z"/>
<path transform="translate(587 520)" d="m0 0c4.86 2.55 7.8 6.14 10 11.1 1.22 5.18 1.44 9.34-0.438 14.4-3.1 4.81-6.71 8.24-11.8 10.8-5.42 0.827-11.3 1.26-16.4-1.1-4.66-3.73-7.17-8.33-7.95-14.3-0.35-7.14 1.46-11.8 5.68-17.4 5.47-5.82 13.6-5.83 20.9-3.43z"/>
<path transform="translate(1030 521)" d="m0 0c5.1 4.85 7.62 9.5 7.88 16.5-0.0678 7.31-2.77 12.3-7.88 17.4-4.63 2.78-9.17 2.87-14.5 2.5-5.89-1.83-8.56-4.09-12-9-2.5-5.32-2.77-10.2-2-16 1.97-5.43 5.61-9.35 10.6-12.2 6.01-2.14 12.1-1.89 17.9 0.777z"/>
<path transform="translate(965 477)" d="m0 0c3.35 3.16 4.51 6.55 5.19 11.1-0.225 4.41-1.01 7.71-3.72 11.2-2.91 2.25-4.57 2.27-8.22 2.2-1.53-0.00193-1.53-0.00193-3.09-0.00391-3.37-0.492-5.26-1.4-7.97-3.43-2-3.54-3.02-5.98-2.94-10.1 1.45-4.54 3.52-7.76 7.19-10.8 4.69-1.92 8.78-1.78 13.6-0.188z"/>
<path transform="translate(643,476)" d="m0 0c3.97 1.57 6.6 3.4 9 7 0.652 4.37 1.03 9.01-1.05 13-2.58 3.13-4.57 4.82-8.59 5.29-8.44 0.343-8.44 0.343-12.6-2.62-2.82-4.44-2.57-9.65-1.75-14.7 3.44-6.76 7.45-9.15 15-8z"/>
<path transform="translate(497 704)" d="m0 0c3.19 0.641 4.96 2.1 7.16 4.43 1.87 3.74 1.54 7.93 1 12-1.31 2.94-2.41 3.85-5 6-4.12 1.27-6.2 1.29-10.2-0.188-3.55-2.34-5.19-4.17-6.56-8.19-0.337-4.72 1.16-7.71 3.88-11.5 3.52-2.55 5.53-2.79 9.78-2.56z"/>
<path transform="translate(1098,650)" d="m0 0c2.75 1.8 4.53 3.05 6 6 0.509 6.1 0.057 9.11-4 14-3.23 1.61-6.51 1.58-10 1-3.61-2.53-4.77-4.2-6-8.44 0-4.94 1.4-7.85 4.75-11.4 3.29-1.65 5.62-1.57 9.25-1.12z"/>
<path transform="translate(506,650)" d="m0 0c3.45 1.44 4.79 2.69 6.88 5.81 1.34 3.78 1.46 5.41 0.125 9.19-2.09 3.16-4.29 5.46-7.96 6.62-3.26 0.307-5.22-0.0182-7.88-1.99-2.64-2.8-4.01-4.9-4.78-8.69 1.6-7.5 5.94-11.7 13.6-10.9z"/>
</svg>
